
<svg width="18px" height="18px" viewBox="0 0 18 18" version="1.1" xmlns="http://www.w3.org/2000/svg" xmlns:xlink="http://www.w3.org/1999/xlink">
    <g id="EMPLOI" stroke="none" stroke-width="1" fill="none" fill-rule="evenodd">
        <g id="Emploi-general" transform="translate(-181.000000, -153.000000)" fill="#39434E" fill-rule="nonzero">
            <g id="SEARCH-FULL-INFO" transform="translate(165.000000, 136.000000)">
                <g id="search-(1)" transform="translate(16.000000, 17.000000)">
                    <path d="M17.7800429,16.657992 L12.6613492,11.580192 C13.65285,10.3652516 14.2498317,8.82144 14.2498317,7.14001162 C14.2498317,3.24293962 11.0533551,0.072 7.12489829,0.072 C3.19644145,0.072 0,3.24290475 0,7.13997675 C0,11.0370488 3.1964766,14.2079884 7.12493344,14.2079884 C8.8199031,14.2079884 10.3761477,13.615776 11.6008725,12.6321964 L16.7195663,17.7099964 C16.8658147,17.8550764 17.0578009,17.928 17.2498222,17.928 C17.4418435,17.928 17.6338297,17.8550764 17.7800781,17.7099964 C18.0733132,17.419104 18.0733132,16.9488844 17.7800429,16.657992 Z M7.12493344,12.7199767 C4.0229558,12.7199767 1.49999524,10.2171724 1.49999524,7.13997675 C1.49999524,4.06278112 4.0229558,1.55997675 7.12493344,1.55997675 C10.2269111,1.55997675 12.7498716,4.06278112 12.7498716,7.13997675 C12.7498716,10.2171724 10.2268759,12.7199767 7.12493344,12.7199767 Z" id="Shape"></path>
                </g>
            </g>
        </g>
    </g>
</svg>