<svg xmlns="http://www.w3.org/2000/svg" width="30" height="30" viewBox="0 0 30 30">
  <g id="Group" transform="translate(0)">
    <path id="Path" d="M.934.246A.488.488,0,0,0,.263.067L.244.078A.5.5,0,0,0,.066.754a.488.488,0,0,0,.67.179L.756.922A.5.5,0,0,0,.934.246Z" transform="translate(22 27)" fill="#fff"/>
    <path id="Shape" d="M10.056,29.16a14.993,14.993,0,1,1,14.221-2.37.586.586,0,0,1-.723-.923A13.874,13.874,0,0,0,28.7,13.25a1.827,1.827,0,0,1-.484.881l-.379.379a.586.586,0,0,1-.415.172.608.608,0,0,1-.127-.014.587.587,0,0,1-.423-.372l-.8-2.191a.294.294,0,0,0-.054-.092l-.722-.845a.3.3,0,0,0-.227-.105H24.8l.031.047a.585.585,0,0,1-.073.74,7.659,7.659,0,0,1-2.749,1.76l-.441.163a.587.587,0,0,1-.723-.279l-1.516-2.9a.58.58,0,0,1-.067-.271v-.41l-.818-.781-.863-.3a.586.586,0,1,1,.389-1.105l.982.345a.593.593,0,0,1,.211.13l1.09,1.04a.586.586,0,0,1,.182.424v.517l1.21,2.32a6.48,6.48,0,0,0,1.935-1.149l-.09-.134a.849.849,0,0,1,.706-1.319h.884a1.469,1.469,0,0,1,1.118.516l.722.845a1.465,1.465,0,0,1,.264.453l.405,1.112V12.8a1.564,1.564,0,0,1,.521-1.139l.248-.221A13.66,13.66,0,0,0,26.975,8.09,13.815,13.815,0,0,0,16.293,1.243L14.607,3.357a.588.588,0,0,1-.264.188L10.552,4.874,9.692,6.958l.874,1.225a2.673,2.673,0,0,1,2.268-1.265h.333a.586.586,0,0,1,0,1.172h-.333a1.5,1.5,0,0,0-1.407.99l-.014.04c.28-.031.563-.041.819-.05.163-.005.317-.011.438-.022.214-.018,1.3-.072,1.628.62a.828.828,0,0,1,.052.564l.012.007a6.511,6.511,0,0,0,.69.42.743.743,0,0,1,.209-.281,1.53,1.53,0,0,1,.625-.258.588.588,0,0,1,.337.021c.129.048.324.1.531.157a3.745,3.745,0,0,1,1.681.747,4.913,4.913,0,0,1,.866,1.613c.081.209.157.406.233.569.042.091.085.185.128.28a2.775,2.775,0,0,0,.8,1.21,2.009,2.009,0,0,0,.512.12c.432.066.971.149,1.183.64a1.265,1.265,0,0,1-.247,1.174,6.314,6.314,0,0,1-.931,1c-.758.706-1.071,1.076-.892,1.653a1.878,1.878,0,0,1-.366,2.184l-.13.139a1.282,1.282,0,0,0-.4.624,2.028,2.028,0,0,1-.48.8,1.505,1.505,0,0,0-.192.247.924.924,0,0,0-.076.262,1.8,1.8,0,0,1-.363.853,3.281,3.281,0,0,1-2.13,1.282,1.218,1.218,0,0,1-.511-.109c-.318-.144-.712-.5-1.239-2.066-.066-.194-.166-.414-.271-.647a3.289,3.289,0,0,1-.43-2.351l.045-.139a1.46,1.46,0,0,0,.072-1.212A1.306,1.306,0,0,0,13.4,18.9a1.85,1.85,0,0,1-.5-.809,2.314,2.314,0,0,1-.052-.581c0-.249-.005-.263-.084-.337-.161-.15-.32-.138-.823-.014a4.566,4.566,0,0,1-.572.115,3.29,3.29,0,0,1-3.1-1.332,3.492,3.492,0,0,1-.29-3.53A5.5,5.5,0,0,1,8.925,11.1c.065-.073.13-.147.2-.222s.184-.241.3-.406a5.549,5.549,0,0,1,.711-.881L8.55,7.376a.587.587,0,0,1-.065-.564L9.569,4.185a.588.588,0,0,1,.347-.33l3.88-1.36,1.047-1.312A13.794,13.794,0,0,0,6.452,4.14,2.7,2.7,0,0,1,7.52,5.4a2.475,2.475,0,0,1-.478,2.625L6.4,8.71,4.8,11.495a.57.57,0,0,1-.167.185l-1.029.736.718,1.054a.586.586,0,0,1-.387.908c-.005,0-.5.083-.991.156a8.426,8.426,0,0,1-1.05.12.591.591,0,0,1-.464-.162.584.584,0,0,1-.108-.131c-.023-.024-.062-.062-.121-.117a13.757,13.757,0,0,0,0,1.6L2.7,15.358a.588.588,0,0,1,.536.091l2.552,1.94,1.323.258A1.824,1.824,0,0,1,8.492,20a.646.646,0,0,0,0,.4l.185.572a1.825,1.825,0,0,1-1.17,2.3l-.253.082L6.728,26.1a13.739,13.739,0,0,0,13.218,1.816.586.586,0,0,1,.42,1.094,15,15,0,0,1-10.311.151Z" fill="#fff"/>
    <path id="Shape-2" data-name="Shape" d="M.352,6.287A1.893,1.893,0,0,1,.419,4.058l.008-.015c.067-.126.058-.2.022-.4A1.6,1.6,0,0,1,.5,2.7,2.147,2.147,0,0,1,1.886,1.613a1.958,1.958,0,0,0,.488-.234A2.807,2.807,0,0,0,2.788.77c.079-.139.161-.283.252-.419A.9.9,0,0,1,3.868,0a.8.8,0,0,1,.7.5l.4,1.218a.548.548,0,0,1-.007.364L3.989,4.743c-.52,1.418-1.157,2.13-2,2.243A1.705,1.705,0,0,1,1.763,7,1.836,1.836,0,0,1,.352,6.287Z" transform="translate(19 18)" fill="#fff"/>
    <path id="Path-2" data-name="Path" d="M.676.04.644.028a.481.481,0,0,0-.616.3.5.5,0,0,0,.3.63L.356.972A.473.473,0,0,0,.516,1,.485.485,0,0,0,.973.669.5.5,0,0,0,.676.04Z" transform="translate(15 7)" fill="#fff"/>
  </g>
</svg>
