<svg xmlns="http://www.w3.org/2000/svg" width="26" height="25" viewBox="0 0 26 25">
  <g id="moon" transform="translate(0 0)">
    <path id="Shape" d="M3.855,21.281a12.352,12.352,0,0,1-1.13-16.7A13.445,13.445,0,0,1,9.769.024a.94.94,0,0,1,.764.16.8.8,0,0,1,.133,1.155A8.534,8.534,0,0,0,9.071,4.1a9.576,9.576,0,0,0-.532,3.11A9.266,9.266,0,0,0,11.4,13.875a9.954,9.954,0,0,0,6.911,2.757,9.57,9.57,0,0,0,3.356-.577,9.847,9.847,0,0,0,2.957-1.668.941.941,0,0,1,.764-.16.758.758,0,0,1,.565,1.026A12.611,12.611,0,0,1,21.3,22.275,13.52,13.52,0,0,1,13.158,25,13.353,13.353,0,0,1,3.855,21.281Z" fill="#fff"/>
  </g>
</svg>
