<svg xmlns="http://www.w3.org/2000/svg" width="27" height="18" viewBox="0 0 27 18">
  <g id="pay" transform="translate(-0.5)">
    <path id="Shape" d="M2.813,18A2.816,2.816,0,0,1,0,15.188V2.813A2.816,2.816,0,0,1,2.813,0H24.188A2.816,2.816,0,0,1,27,2.813V15.188A2.816,2.816,0,0,1,24.188,18Z" transform="translate(0.5)" fill="#aac1ca"/>
    <path id="Shape-2" data-name="Shape" d="M.563,4A.534.534,0,0,1,0,3.5V.5A.534.534,0,0,1,.563,0H26.438A.534.534,0,0,1,27,.5v3a.534.534,0,0,1-.562.5Z" transform="translate(0.5 4)" fill="#aac1ca"/>
    <path id="Path" d="M7.429,0H.571A.54.54,0,0,0,0,.5.539.539,0,0,0,.571,1H7.429A.54.54,0,0,0,8,.5.539.539,0,0,0,7.429,0Z" transform="translate(3.5 11)" fill="#aac1ca"/>
    <path id="Path-2" data-name="Path" d="M7.429,0H.571A.54.54,0,0,0,0,.5.54.54,0,0,0,.571,1H7.429A.54.54,0,0,0,8,.5.54.54,0,0,0,7.429,0Z" transform="translate(3.5 14)" fill="#aac1ca"/>
    <path id="Shape-3" data-name="Shape" d="M1.875,4A1.721,1.721,0,0,1,0,2.5v-1A1.722,1.722,0,0,1,1.875,0h1.25A1.722,1.722,0,0,1,5,1.5v1A1.721,1.721,0,0,1,3.125,4Z" transform="translate(19.5 10)" fill="#aac1ca"/>
  </g>
</svg>
