<svg id="sun" xmlns="http://www.w3.org/2000/svg" width="35" height="35" viewBox="0 0 35 35">
  <path id="Shape" d="M0,11.5A11.5,11.5,0,1,1,11.5,23,11.513,11.513,0,0,1,0,11.5Z" transform="translate(7 7)" fill="#fff"/>
  <path id="Path" d="M2.832,2.678a.92.92,0,0,0-.122-1.2L1.252.187A.721.721,0,0,0,.168.322a.92.92,0,0,0,.122,1.2L1.748,2.813A.721.721,0,0,0,2.832,2.678Z" transform="translate(4 7)" fill="#fff"/>
  <path id="Path-2" data-name="Path" d="M.29,1.524,1.748,2.813a.721.721,0,0,0,1.084-.135.92.92,0,0,0-.122-1.2L1.252.187A.721.721,0,0,0,.168.322.92.92,0,0,0,.29,1.524Z" transform="translate(28 25)" fill="#fff"/>
  <path id="Path-3" data-name="Path" d="M2,3.77V1.23A1.133,1.133,0,0,0,1,0,1.133,1.133,0,0,0,0,1.23V3.77A1.133,1.133,0,0,0,1,5,1.133,1.133,0,0,0,2,3.77Z" transform="translate(17)" fill="#fff"/>
  <path id="Path-4" data-name="Path" d="M0,1.23V3.77A1.133,1.133,0,0,0,1,5,1.133,1.133,0,0,0,2,3.77V1.23A1.133,1.133,0,0,0,1,0,1.133,1.133,0,0,0,0,1.23Z" transform="translate(17 30)" fill="#fff"/>
  <path id="Path-5" data-name="Path" d="M.887,1.558l2.735.423a1.2,1.2,0,0,0,1.351-.6c.135-.425-.25-.846-.86-.94L1.378.019a1.2,1.2,0,0,0-1.351.6C-.108,1.043.277,1.464.887,1.558Z" transform="translate(0 13)" fill="#fff"/>
  <path id="Path-6" data-name="Path" d="M4.113.442,1.378.019a1.2,1.2,0,0,0-1.351.6c-.135.425.25.846.86.941l2.735.423a1.2,1.2,0,0,0,1.351-.6C5.108.957,4.723.536,4.113.442Z" transform="translate(30 20)" fill="#fff"/>
  <path id="Path-7" data-name="Path" d="M1.872,4.322l1.03-2.6a1.324,1.324,0,0,0-.46-1.6.915.915,0,0,0-1.314.56L.1,3.282a1.324,1.324,0,0,0,.46,1.6A.915.915,0,0,0,1.872,4.322Z" transform="translate(23 1)" fill="#fff"/>
  <path id="Path-8" data-name="Path" d="M1.128.678.1,3.282a1.323,1.323,0,0,0,.46,1.6.915.915,0,0,0,1.314-.56l1.03-2.6a1.323,1.323,0,0,0-.46-1.6A.915.915,0,0,0,1.128.678Z" transform="translate(9 29)" fill="#fff"/>
  <path id="Path-9" data-name="Path" d="M2.442,4.881a1.324,1.324,0,0,0,.46-1.6L1.872.678A.915.915,0,0,0,.558.119a1.324,1.324,0,0,0-.46,1.6l1.03,2.6a.915.915,0,0,0,1.314.56Z" transform="translate(9 1)" fill="#fff"/>
  <path id="Path-10" data-name="Path" d="M.558.119a1.324,1.324,0,0,0-.46,1.6l1.03,2.6a.915.915,0,0,0,1.314.56,1.324,1.324,0,0,0,.46-1.6L1.872.678A.915.915,0,0,0,.558.119Z" transform="translate(23 29)" fill="#fff"/>
  <path id="Path-11" data-name="Path" d="M.168,2.678a.721.721,0,0,0,1.084.135L2.71,1.524a.92.92,0,0,0,.122-1.2A.721.721,0,0,0,1.748.187L.29,1.476A.92.92,0,0,0,.168,2.678Z" transform="translate(4 25)" fill="#fff"/>
  <path id="Path-12" data-name="Path" d="M2.832.322A.721.721,0,0,0,1.748.187L.29,1.476a.92.92,0,0,0-.122,1.2.721.721,0,0,0,1.084.135L2.71,1.524A.92.92,0,0,0,2.832.322Z" transform="translate(28 7)" fill="#fff"/>
  <path id="Path-13" data-name="Path" d="M1.378,1.981l2.735-.423c.61-.094,1-.515.86-.941a1.2,1.2,0,0,0-1.351-.6L.887.442c-.61.094-1,.515-.86.941A1.2,1.2,0,0,0,1.378,1.981Z" transform="translate(0 20)" fill="#fff"/>
  <path id="Path-14" data-name="Path" d="M3.622.019.887.442c-.61.094-1,.515-.86.941a1.2,1.2,0,0,0,1.351.6l2.735-.423c.61-.094,1-.515.86-.941A1.2,1.2,0,0,0,3.622.019Z" transform="translate(30 13)" fill="#fff"/>
</svg>
