
<svg width="159px" height="30px" viewBox="0 0 159 30" version="1.1" xmlns="http://www.w3.org/2000/svg" xmlns:xlink="http://www.w3.org/1999/xlink">
    <defs>
        <linearGradient x1="0%" y1="50.0830961%" x2="100.165317%" y2="50.0830961%" id="linearGradient-1">
            <stop stop-color="#5483F0" offset="0%"></stop>
            <stop stop-color="#4067C1" offset="100%"></stop>
        </linearGradient>
        <linearGradient x1="0.230044843%" y1="49.9078067%" x2="98.938565%" y2="49.9078067%" id="linearGradient-2">
            <stop stop-color="#5483F0" offset="0%"></stop>
            <stop stop-color="#4067C1" offset="100%"></stop>
        </linearGradient>
        <linearGradient x1="-0.0686486486%" y1="49.9658909%" x2="99.9097297%" y2="49.9658909%" id="linearGradient-3">
            <stop stop-color="#6AB04C" offset="0%"></stop>
            <stop stop-color="#BADC58" offset="100%"></stop>
        </linearGradient>
    </defs>
    <g id="Symbols" stroke="none" stroke-width="1" fill="none" fill-rule="evenodd">
        <g id="LOGO-WHITE-#1" fill-rule="nonzero">
            <g id="LOGO-COLOR-#1">
                <path d="M14.9998422,0 C6.7259079,0 0,6.72597865 0,15 C0,23.2740214 6.7259079,30 14.9998422,30 C23.2737765,30 29.9996844,23.2740214 29.9996844,15 C30.0530647,6.72597865 23.3271568,0 14.9998422,0 Z M14.9998422,27.9181495 C7.90027277,27.9181495 2.13520886,22.1530249 2.13520886,15 C2.13520886,7.84697509 7.90027277,2.13523132 14.9998422,2.13523132 C22.0994117,2.13523132 27.8644756,7.90035587 27.8644756,15 C27.8644756,22.0996441 22.1527919,27.9181495 14.9998422,27.9181495 Z" id="Shape" fill="url(#linearGradient-1)"></path>
                <g id="Group" transform="translate(35.000000, 6.000000)" fill="#FFFFFF">
                    <path d="M10.2457627,6.12222222 C10.0881356,5.17222222 9.3,3.64166667 7.09322034,3.64166667 C5.46440678,3.64166667 4.36101695,4.69722222 4.36101695,5.85833333 C4.36101695,6.80833333 4.99152542,7.6 6.25254237,7.81111111 L8.66949153,8.28611111 C11.8220339,8.91944444 13.5033898,10.9777778 13.5033898,13.4055556 C13.5033898,16.0972222 11.2966102,18.7888889 7.25084746,18.7888889 C2.62711864,18.7888889 0.630508475,15.8333333 0.36779661,13.3527778 L3.52033898,12.5083333 C3.6779661,14.25 4.88644068,15.7805556 7.30338983,15.7805556 C9.08983051,15.7805556 10.140678,14.8833333 10.140678,13.6694444 C10.140678,12.6666667 9.40508475,11.875 8.03898305,11.6111111 L5.56949153,11.0833333 C2.78474576,10.5027778 0.998305085,8.70833333 0.998305085,6.12222222 C0.998305085,3.00833333 3.78305085,0.686111111 7.04067797,0.686111111 C11.2440678,0.686111111 12.8728814,3.21944444 13.240678,5.225 L10.2457627,6.12222222 Z" id="Path"></path>
                    <path d="M20.2813559,6.33333333 L22.6983051,6.33333333 L22.6983051,9.23611111 L20.2813559,9.23611111 L20.2813559,14.3027778 C20.2813559,15.3583333 20.7542373,15.7277778 21.7,15.7277778 C22.0677966,15.7277778 22.540678,15.675 22.6983051,15.6222222 L22.6983051,18.3138889 C22.3830508,18.4194444 21.8050847,18.6305556 20.859322,18.6305556 C18.4949153,18.6305556 17.0237288,17.2055556 17.0237288,14.8833333 L17.0237288,9.23611111 L14.8694915,9.23611111 L14.8694915,6.33333333 L15.5,6.33333333 C16.7610169,6.33333333 17.3389831,5.48888889 17.3389831,4.43333333 L17.3389831,2.74444444 L20.2813559,2.74444444 L20.2813559,6.33333333 L20.2813559,6.33333333 Z" id="Path"></path>
                    <path d="M28.3728814,11.4527778 L31.3152542,11.0305556 C31.9983051,10.925 32.2084746,10.6083333 32.2084746,10.1861111 C32.2084746,9.34166667 31.5254237,8.60277778 30.159322,8.60277778 C28.740678,8.60277778 27.9525424,9.5 27.8474576,10.5555556 L24.9576271,9.92222222 C25.1677966,8.02222222 26.9016949,5.96388889 30.1067797,5.96388889 C33.9423729,5.96388889 35.3610169,8.12777778 35.3610169,10.5555556 L35.3610169,16.5194444 C35.3610169,17.1527778 35.4135593,17.9972222 35.5186441,18.4194444 L32.5762712,18.4194444 C32.5237288,18.1027778 32.4711864,17.4166667 32.4711864,16.9944444 C31.840678,17.9444444 30.6847458,18.7888889 28.9508475,18.7888889 C26.3762712,18.7888889 24.8,17.0472222 24.8,15.1472222 C24.8,12.9833333 26.3762712,11.7694444 28.3728814,11.4527778 Z M32.2610169,13.5638889 L32.2610169,13.0361111 L29.5288136,13.4583333 C28.6881356,13.5638889 28.0576271,14.0388889 28.0576271,14.9888889 C28.0576271,15.675 28.5830508,16.4138889 29.6338983,16.4138889 C31,16.3611111 32.2610169,15.675 32.2610169,13.5638889 Z" id="Shape"></path>
                    <path d="M50.4932203,6.33333333 L53.2254237,6.33333333 L53.2254237,9.13055556 L50.4932203,9.13055556 L50.4932203,18.4194444 L47.2355932,18.4194444 L47.2355932,9.13055556 L42.6118644,9.13055556 L42.6118644,18.4194444 L39.3542373,18.4194444 L39.3542373,9.13055556 L37.3050847,9.13055556 L37.3050847,6.33333333 L39.3016949,6.33333333 L39.3016949,4.96111111 C39.3016949,2.21666667 41.0355932,0.475 43.6627119,0.475 C44.3457627,0.475 45.0288136,0.580555556 45.2915254,0.738888889 L45.2915254,3.48333333 C45.1338983,3.43055556 44.8186441,3.37777778 44.240678,3.37777778 C43.5576271,3.37777778 42.559322,3.69444444 42.559322,5.06666667 L42.559322,6.33333333 L47.1830508,6.33333333 L47.1830508,4.96111111 C47.1830508,2.21666667 48.9169492,0.475 51.5440678,0.475 C52.2271186,0.475 52.9101695,0.580555556 53.1728814,0.738888889 L53.1728814,3.48333333 C53.0152542,3.43055556 52.7,3.37777778 52.1220339,3.37777778 C51.4389831,3.37777778 50.440678,3.69444444 50.3881356,5.06666667 L50.3881356,6.33333333 L50.4932203,6.33333333 Z" id="Path"></path>
                    <polygon id="Path" points="55.5898305 18.4194444 55.5898305 1.00277778 58.9525424 1.00277778 58.9525424 15.2 66.6762712 15.2 66.6762712 18.4194444"></polygon>
                    <path d="M70.6169492,0.369444444 C71.720339,0.369444444 72.6135593,1.26666667 72.6135593,2.42777778 C72.6135593,3.48333333 71.720339,4.43333333 70.6169492,4.43333333 C69.5135593,4.43333333 68.620339,3.53611111 68.620339,2.42777778 C68.620339,1.26666667 69.5135593,0.369444444 70.6169492,0.369444444 Z M69.040678,18.4194444 L69.040678,6.33333333 L72.2983051,6.33333333 L72.2983051,18.4194444 L69.040678,18.4194444 Z" id="Shape"></path>
                    <path d="M78.9711864,18.4194444 L75.7135593,18.4194444 L75.7135593,6.33333333 L78.8661017,6.33333333 L78.8661017,7.81111111 C79.6016949,6.54444444 81.020339,6.01666667 82.3338983,6.01666667 C85.3288136,6.01666667 86.6949153,8.12777778 86.6949153,10.8194444 L86.6949153,18.4194444 L83.4372881,18.4194444 L83.4372881,11.4 C83.4372881,10.0277778 82.7542373,8.97222222 81.2305085,8.97222222 C79.8118644,8.97222222 78.9711864,10.0805556 78.9711864,11.4527778 L78.9711864,18.4194444 L78.9711864,18.4194444 Z" id="Path"></path>
                    <polygon id="Path" points="96.8881356 11.4527778 101.827119 18.4722222 97.8338983 18.4722222 94.6813559 13.8805556 93.3152542 15.3055556 93.3152542 18.525 90.0576271 18.525 90.0576271 0.633333333 93.3152542 0.633333333 93.3152542 10.8194444 97.4661017 6.33333333 101.722034 6.33333333"></polygon>
                    <path d="M113.964407,14.9888889 C113.333898,17.1 111.442373,18.8416667 108.5,18.8416667 C105.189831,18.8416667 102.3,16.4666667 102.3,12.4027778 C102.3,8.55 105.137288,6.01666667 108.237288,6.01666667 C111.967797,6.01666667 114.174576,8.39166667 114.174576,12.2972222 C114.174576,12.7722222 114.122034,13.2472222 114.122034,13.3 L105.505085,13.3 C105.557627,14.8833333 106.923729,16.0444444 108.552542,16.0444444 C110.076271,16.0444444 110.916949,15.3055556 111.284746,14.1972222 L113.964407,14.9888889 Z M110.916949,11.0305556 C110.864407,9.81666667 110.076271,8.65555556 108.237288,8.65555556 C106.555932,8.65555556 105.610169,9.92222222 105.557627,11.0305556 L110.916949,11.0305556 Z" id="Shape"></path>
                    <path d="M124,9.60555556 C123.632203,9.55277778 123.316949,9.5 123.001695,9.5 C121.320339,9.5 119.901695,10.2916667 119.901695,12.9305556 L119.901695,18.4722222 L116.644068,18.4722222 L116.644068,6.33333333 L119.79661,6.33333333 L119.79661,8.12777778 C120.532203,6.54444444 122.213559,6.22777778 123.211864,6.22777778 C123.474576,6.22777778 123.737288,6.22777778 123.947458,6.28055556 L123.947458,9.60555556 L124,9.60555556 Z" id="Path"></path>
                </g>
                <g id="Group" transform="translate(7.000000, 4.000000)">
                    <path d="M8.13076923,10.1093023 L6.56923077,7.38139535 C6.46153846,7.22093023 6.46153846,7.00697674 6.56923077,6.84651163 L8.50769231,3.53023256 C8.72307692,3.15581395 9.26153846,3.15581395 9.47692308,3.53023256 L9.47692308,3.53023256 C9.58461538,3.69069767 9.58461538,3.90465116 9.47692308,4.06511628 L7.86153846,6.84651163 C7.75384615,7.00697674 7.75384615,7.22093023 7.86153846,7.38139535 L8.50769231,8.45116279 C8.72307692,8.8255814 9.26153846,8.8255814 9.47692308,8.45116279 L12.0615385,4.01162791 C12.1692308,3.85116279 12.1692308,3.6372093 12.0615385,3.47674419 L10.4461538,0.748837209 C10.3384615,0.588372093 10.1769231,0.481395349 9.96153846,0.481395349 L8.07692308,0.481395349 C7.86153846,0.481395349 7.7,0.588372093 7.59230769,0.748837209 L4.03846154,6.84651163 C3.93076923,7.00697674 3.93076923,7.22093023 4.03846154,7.38139535 L5.6,10.1093023 C5.70769231,10.2697674 5.70769231,10.4837209 5.6,10.644186 L3.71538462,13.8534884 C3.5,14.227907 2.96153846,14.227907 2.74615385,13.8534884 L2.74615385,13.8534884 C2.63846154,13.6930233 2.63846154,13.4790698 2.74615385,13.3186047 L4.30769231,10.644186 C4.41538462,10.4837209 4.41538462,10.2697674 4.30769231,10.1093023 L3.66153846,9.03953488 C3.44615385,8.66511628 2.90769231,8.66511628 2.69230769,9.03953488 L0.215384615,13.3186047 C0.107692308,13.4790698 0.107692308,13.6930233 0.215384615,13.8534884 L2.74615385,18.1860465 C2.96153846,18.5604651 3.5,18.5604651 3.71538462,18.1860465 L8.13076923,10.644186 C8.18461538,10.4837209 8.18461538,10.2697674 8.13076923,10.1093023 Z" id="Path" fill="url(#linearGradient-2)"></path>
                    <path d="M13.7307692,6.95348837 C13.8384615,6.79302326 13.8384615,6.57906977 13.7307692,6.36511628 L13.0307692,5.34883721 C12.8153846,5.02790698 12.3307692,5.02790698 12.1153846,5.34883721 L3.93076923,19.255814 C3.82307692,19.4162791 3.82307692,19.6302326 3.93076923,19.7906977 L5.38461538,22.3046512 C5.6,22.7325581 6.24615385,22.6255814 6.35384615,22.1976744 L6.89230769,20.5930233 L6.46153846,19.7906977 C6.35384615,19.6302326 6.35384615,19.4162791 6.46153846,19.255814 L13.7307692,6.95348837 Z" id="Path" fill="url(#linearGradient-3)"></path>
                </g>
            </g>
        </g>
    </g>
</svg>