<svg id="upload" xmlns="http://www.w3.org/2000/svg" width="46" height="51" viewBox="0 0 46 51">
  <path id="Shape" d="M19.075,43.9H5.648A5.655,5.655,0,0,1,0,38.192V5.75A5.692,5.692,0,0,1,5.648,0H22.658a1.066,1.066,0,0,1,.769.329L34.155,11.693a1.12,1.12,0,0,1,.305.733v9.652A14.626,14.626,0,0,1,31.488,51,14.468,14.468,0,0,1,19.075,43.9Z" fill="#c6c6c6"/>
  <path id="Path" d="M1.072,2H11.928A1.041,1.041,0,0,0,13,1a1.041,1.041,0,0,0-1.072-1H1.072A1.041,1.041,0,0,0,0,1,1.041,1.041,0,0,0,1.072,2Z" transform="translate(7 20)" fill="#c6c6c6"/>
  <path id="Path-2" data-name="Path" d="M7.739.331a1,1,0,0,0-1.489,0L.274,6.841A1.042,1.042,0,0,0,.325,8.3a1.031,1.031,0,0,0,1.458-.052L6.006,3.664v11.3a1.02,1.02,0,1,0,2.04,0V3.664l4.192,4.585a1,1,0,0,0,1.438.052,1.042,1.042,0,0,0,.051-1.459Z" transform="translate(24 28)" fill="#c6c6c6"/>
</svg>
